<?xml version="1.0" standalone="no"?>
<!DOCTYPE svg PUBLIC "-//W3C//DTD SVG 20010904//EN"
 "http://www.w3.org/TR/2001/REC-SVG-20010904/DTD/svg10.dtd">
<svg version="1.0" xmlns="http://www.w3.org/2000/svg"
 width="2000.000000pt" height="2000.000000pt" viewBox="0 0 2000.000000 2000.000000"
 preserveAspectRatio="xMidYMid meet">
<metadata>
Created by potrace 1.14, written by Peter Selinger 2001-2017
</metadata>
<g transform="translate(0.000000,2000.000000) scale(0.100000,-0.100000)"
fill="#000000" stroke="none">
<path d="M10183 17530 c-106 -43 -164 -160 -117 -238 8 -15 29 -37 47 -49 27
-20 40 -22 106 -17 42 2 90 6 106 8 38 5 59 -10 71 -49 12 -35 11 -48 -11
-210 -2 -11 -6 -42 -9 -70 -4 -27 -9 -63 -11 -80 -4 -28 -7 -50 -20 -165 -17
-153 -24 -235 -40 -484 -4 -67 -14 -103 -16 -55 -1 30 2 19 -53 224 -116 427
-356 1046 -447 1149 l-37 41 -108 -1 c-60 0 -129 -3 -154 -7 -25 -3 -67 -8
-95 -12 -27 -3 -66 -8 -85 -11 -19 -2 -125 -7 -235 -9 -321 -7 -338 -8 -375
-17 -78 -20 -126 -53 -170 -117 -33 -48 -34 -143 -2 -189 40 -55 114 -76 186
-52 49 16 76 22 123 27 36 4 43 2 59 -22 15 -23 17 -65 19 -423 1 -218 5 -408
8 -422 3 -14 8 -68 12 -122 3 -53 8 -107 11 -120 9 -44 12 -281 3 -311 -14
-50 -30 -59 -104 -58 -104 1 -144 -30 -170 -131 -36 -135 12 -397 100 -542 43
-71 76 -101 126 -114 45 -11 76 2 209 89 153 101 194 113 385 114 165 1 196
10 233 62 18 26 25 44 51 129 5 18 9 93 9 167 0 119 -4 157 -22 252 -9 44 -48
115 -77 139 -38 32 -64 33 -127 1 -73 -37 -87 -34 -117 25 -14 27 -25 51 -24
52 1 3 -4 49 -19 148 -8 58 -8 747 1 860 9 125 13 159 18 165 7 6 144 -301
227 -505 68 -169 221 -611 256 -741 8 -30 40 -146 71 -259 89 -327 98 -350
144 -385 23 -18 39 -20 155 -17 92 2 147 -2 192 -14 37 -9 77 -13 94 -9 68 15
119 144 135 340 2 33 7 94 11 135 4 41 8 93 10 115 4 54 13 159 19 218 12 111
17 153 20 177 2 14 6 52 9 85 4 33 9 78 12 100 3 22 7 51 9 65 2 14 6 43 10
65 3 22 8 58 10 80 5 45 11 85 19 130 6 35 17 111 21 141 2 11 8 45 14 75 5
30 13 72 16 94 3 22 7 47 10 55 2 8 6 32 9 53 15 98 74 147 151 125 89 -26
187 -28 233 -4 85 44 123 123 97 200 -16 47 -42 71 -103 99 -42 19 -64 21
-212 20 -91 0 -190 -2 -220 -3 -56 -3 -251 7 -305 15 -16 2 -91 7 -165 10
-121 5 -140 3 -187 -15z"/>
<path d="M13815 17131 c-16 -4 -43 -15 -60 -23 -126 -67 -167 -266 -79 -384
36 -48 102 -72 202 -74 25 0 42 -8 62 -30 25 -27 28 -36 24 -88 -2 -31 -7 -70
-11 -87 -3 -16 -8 -34 -9 -40 -3 -16 -69 -230 -102 -335 -17 -52 -54 -160 -82
-240 -28 -80 -58 -165 -66 -190 -8 -25 -19 -54 -24 -65 -5 -11 -29 -74 -54
-140 -177 -479 -307 -752 -368 -768 -24 -7 -38 8 -88 85 -51 78 -81 95 -133
73 -166 -69 -362 -606 -315 -865 13 -75 38 -115 98 -155 95 -66 175 -137 233
-210 61 -76 150 -245 217 -415 112 -281 196 -411 303 -466 38 -20 114 -40 142
-38 94 7 148 22 241 66 47 22 182 104 194 118 3 4 14 13 26 21 83 56 316 279
411 392 32 38 72 85 89 105 18 21 64 80 103 132 39 52 74 100 78 105 53 68
213 321 213 336 0 5 4 9 9 9 5 0 11 8 14 18 3 9 20 42 38 72 66 115 170 332
260 545 16 38 81 210 84 225 2 8 18 60 35 115 17 55 33 109 35 119 3 10 9 33
14 50 6 17 13 42 15 56 3 14 10 43 15 66 6 22 13 60 16 83 3 24 7 46 9 50 2 3
7 31 11 61 3 30 8 62 10 70 19 74 27 471 12 590 -18 145 -83 330 -152 434 -63
96 -173 195 -281 254 -81 44 -269 103 -399 127 -74 13 -92 17 -125 25 -20 5
-51 12 -70 14 -19 3 -78 14 -130 26 -52 11 -105 23 -117 25 -12 3 -86 28 -165
56 -258 91 -318 105 -383 90z m908 -776 c142 -43 236 -156 282 -340 26 -103
26 -355 -1 -475 -3 -14 -8 -38 -10 -54 -3 -17 -15 -64 -26 -105 -10 -42 -21
-83 -23 -91 -6 -29 -98 -295 -105 -305 -3 -5 -15 -32 -25 -60 -72 -195 -215
-459 -347 -638 -164 -221 -343 -356 -484 -363 -54 -2 -68 1 -106 25 -57 37
-105 118 -113 192 -11 96 10 160 165 509 45 102 109 250 142 330 33 80 65 159
72 175 7 17 23 57 36 90 12 33 28 74 35 90 20 46 179 490 204 570 13 39 25 77
28 85 3 8 7 20 9 25 96 336 132 381 267 340z"/>
<path d="M11471 17055 c-111 -35 -168 -168 -111 -261 29 -47 66 -63 148 -67
113 -6 128 -23 222 -257 21 -53 52 -138 69 -189 l31 -94 -22 -26 c-13 -14 -30
-33 -38 -42 -37 -39 -74 -85 -204 -249 -139 -175 -190 -230 -214 -230 -7 0
-35 11 -62 25 -54 27 -77 30 -112 14 -26 -11 -78 -80 -78 -101 0 -8 -4 -18 -9
-23 -6 -6 -12 -23 -15 -40 -3 -16 -9 -43 -13 -60 -13 -56 -9 -297 6 -349 23
-77 64 -111 153 -126 134 -23 193 -37 232 -57 17 -8 61 -37 97 -64 37 -27 82
-55 100 -63 93 -37 168 51 230 272 27 98 27 161 -3 242 -17 47 -22 75 -17 103
5 35 67 136 121 199 23 27 75 89 115 137 31 38 28 47 49 -159 10 -94 10 -223
0 -272 -4 -24 -19 -49 -43 -70 -91 -83 -104 -98 -128 -151 -13 -31 -22 -57
-19 -57 4 0 1 -7 -6 -15 -7 -8 -10 -15 -7 -15 2 0 -1 -26 -7 -57 -7 -32 -12
-105 -11 -163 2 -88 6 -113 26 -155 21 -43 33 -54 84 -80 33 -16 84 -38 113
-48 62 -21 121 -75 187 -172 88 -129 130 -157 190 -127 98 49 225 298 272 532
9 48 6 145 -6 182 -14 43 -57 78 -95 78 -49 0 -57 33 -61 265 -4 187 -13 395
-20 455 -2 19 -6 62 -10 95 -3 33 -8 74 -11 91 -4 27 4 38 83 115 111 105 241
222 298 267 52 40 83 39 158 -3 60 -34 97 -29 154 23 80 71 116 190 88 284
-12 39 -54 87 -94 107 -32 17 -125 38 -241 56 -69 10 -97 18 -187 51 -158 57
-175 63 -229 68 -71 8 -130 -23 -161 -86 -40 -80 -35 -158 13 -206 44 -43 37
-82 -24 -140 -154 -148 -163 -156 -173 -141 -5 8 -9 20 -9 27 0 7 -11 58 -25
115 -42 179 -41 191 22 227 54 30 84 77 88 139 6 89 -51 142 -171 161 -53 8
-88 12 -254 25 -25 2 -88 13 -140 25 -238 55 -250 56 -319 35z"/>
<path d="M5819 17012 c-110 -41 -153 -107 -147 -225 l3 -72 -75 43 c-68 39
-161 74 -229 87 -32 6 -199 7 -226 1 -282 -61 -486 -207 -607 -436 -71 -134
-123 -319 -145 -515 -14 -125 -7 -503 12 -635 3 -19 7 -55 10 -80 3 -25 7 -56
10 -70 11 -59 16 -89 26 -145 10 -62 52 -244 69 -305 5 -19 21 -78 36 -130 54
-199 216 -649 273 -758 5 -9 41 -82 80 -162 193 -396 410 -711 670 -970 274
-273 500 -400 704 -395 218 6 383 207 463 564 9 40 17 85 19 100 15 148 19
218 19 351 0 140 -9 337 -18 415 -2 17 -7 59 -10 95 -4 36 -8 75 -10 87 -3 12
-7 46 -10 75 -4 29 -8 64 -11 78 -3 14 -10 54 -16 90 -8 54 -36 192 -54 275
-3 11 -7 31 -10 45 -14 73 -83 312 -122 425 -79 230 -162 367 -246 411 -44 23
-107 27 -148 10 -42 -17 -103 -76 -125 -119 -41 -78 -62 -236 -43 -312 5 -16
11 -46 14 -65 7 -39 62 -207 91 -275 28 -66 51 -142 79 -259 2 -10 7 -48 10
-85 16 -192 -8 -342 -72 -445 -78 -126 -174 -164 -283 -113 -32 15 -48 27
-107 78 -77 66 -220 281 -298 444 -55 117 -105 226 -106 233 -1 4 -5 17 -10
29 -127 334 -225 690 -254 920 -4 26 -8 59 -11 73 -24 142 -20 403 7 504 6 22
12 46 13 51 6 29 31 91 53 130 84 151 277 240 409 190 109 -42 157 -120 180
-295 24 -187 67 -294 133 -329 37 -20 104 -15 157 12 54 28 134 97 134 115 0
7 3 12 8 12 8 0 49 86 63 134 17 55 19 173 4 243 -7 37 -25 122 -39 188 -21
94 -27 157 -31 290 -6 214 -12 270 -35 314 -46 90 -143 122 -251 83z"/>
<path d="M8085 16923 c-44 -13 -84 -25 -90 -27 -5 -1 -36 -11 -68 -20 -57 -17
-75 -21 -172 -31 -209 -23 -272 -50 -317 -138 -24 -49 -30 -156 -10 -203 8
-20 31 -41 65 -60 39 -22 53 -36 55 -56 2 -14 -22 -98 -52 -186 -30 -88 -52
-163 -49 -166 4 -3 1 -6 -5 -6 -7 0 -12 4 -12 9 0 5 -6 16 -13 23 -27 27 -135
174 -150 205 -24 45 -21 76 10 136 15 29 27 54 28 57 0 3 3 10 7 15 3 6 5 39
3 75 -4 113 -51 162 -148 154 -33 -3 -236 -75 -262 -94 -30 -21 -136 -53 -260
-79 -163 -34 -180 -40 -224 -76 -129 -109 -123 -432 10 -500 39 -21 72 -13
134 30 53 38 81 43 123 21 25 -13 90 -76 157 -151 28 -31 118 -130 205 -225
28 -31 48 -61 46 -70 -4 -14 -10 -59 -21 -160 -2 -19 -7 -57 -10 -85 -7 -66
-14 -237 -20 -465 -8 -311 -9 -314 -94 -351 -46 -21 -61 -33 -76 -65 -38 -77
-16 -285 44 -418 11 -23 26 -57 34 -76 39 -97 121 -222 182 -283 22 -21 76
-47 99 -47 29 0 79 55 162 180 95 143 130 182 200 228 124 79 162 112 184 160
50 103 21 312 -70 517 -23 51 -61 92 -102 110 -44 18 -74 52 -86 98 -10 37 -8
308 2 387 3 19 6 59 8 88 1 30 5 55 9 58 7 4 168 -194 216 -266 51 -76 56
-109 37 -225 -10 -62 -11 -170 -2 -210 28 -123 121 -280 192 -324 80 -50 100
-39 246 129 44 50 109 97 147 105 10 2 55 15 101 28 139 41 177 99 176 267 0
100 -3 121 -28 236 -23 105 -56 181 -101 231 -51 57 -88 60 -145 15 -69 -56
-78 -50 -237 161 -95 126 -237 310 -279 360 -9 11 -12 26 -9 35 4 10 9 28 11
41 11 55 100 285 154 396 62 129 75 142 150 152 19 3 42 6 50 7 79 14 157 142
148 245 -9 122 -106 158 -283 104z"/>
<path d="M9612 14838 c-30 -4 -60 -15 -68 -23 -9 -8 -19 -15 -23 -15 -17 0
-41 -71 -35 -107 6 -38 41 -140 54 -158 4 -5 10 -21 13 -35 4 -14 28 -48 56
-77 42 -43 53 -50 77 -45 16 3 35 12 43 20 19 19 81 122 81 134 0 5 9 21 20
35 35 45 53 129 41 194 0 4 -31 25 -68 47 -72 43 -91 46 -191 30z"/>
<path d="M9337 14789 c-73 -62 -237 -347 -252 -438 -3 -19 -8 -38 -11 -42 -2
-4 1 -11 7 -15 6 -3 14 -2 18 4 9 14 54 73 66 86 6 6 28 34 50 61 21 28 42 52
45 55 9 9 84 103 111 140 42 58 81 136 77 156 -2 14 -13 20 -38 22 -28 2 -44
-4 -73 -29z"/>
<path d="M10056 14722 c-2 -2 -2 -12 1 -23 9 -31 35 -40 71 -22 39 19 44 46 7
39 -13 -3 -27 -1 -30 4 -5 8 -42 10 -49 2z"/>
<path d="M8698 14616 c-14 -5 -31 -19 -36 -30 -5 -12 -27 -30 -48 -41 -22 -10
-50 -27 -64 -36 -14 -9 -70 -40 -125 -69 -82 -43 -222 -133 -270 -172 -5 -5
-44 -34 -85 -65 -41 -31 -80 -62 -86 -67 -413 -383 -469 -444 -672 -746 -80
-121 -116 -186 -169 -310 -8 -19 -28 -66 -45 -105 -17 -38 -34 -79 -39 -90 -4
-11 -17 -40 -27 -65 -30 -69 -107 -337 -117 -405 -1 -11 -5 -31 -9 -45 -22
-87 -32 -308 -22 -470 2 -30 7 -102 10 -160 3 -58 8 -127 11 -155 13 -116 16
-155 20 -250 2 -55 9 -125 15 -155 10 -51 20 -116 23 -164 1 -14 -6 -22 -23
-26 -17 -4 -32 -20 -48 -51 -20 -41 -23 -61 -23 -160 1 -116 2 -128 20 -187 5
-18 10 -33 10 -35 0 -1 4 -13 9 -27 71 -197 169 -486 177 -520 3 -14 51 -131
80 -195 7 -16 23 -55 35 -85 12 -30 67 -143 123 -250 56 -107 104 -199 105
-205 5 -14 32 -75 48 -109 8 -16 14 -33 14 -37 0 -4 21 -42 46 -85 40 -67 46
-85 50 -148 2 -39 6 -93 9 -121 15 -160 19 -227 19 -380 0 -155 -7 -283 -19
-375 -3 -19 -7 -60 -10 -91 -10 -130 -16 -196 -20 -218 -7 -42 -18 -320 -18
-461 0 -123 8 -300 17 -390 2 -19 7 -66 10 -105 4 -38 9 -81 11 -95 2 -14 7
-50 10 -80 3 -30 9 -68 12 -85 7 -43 10 -62 18 -130 l6 -60 -122 -115 c-250
-234 -395 -394 -547 -600 -81 -110 -221 -295 -298 -396 -100 -129 -145 -239
-148 -359 l-1 -60 -75 -17 c-41 -10 -100 -20 -130 -24 -30 -3 -71 -7 -90 -10
-19 -2 -64 -6 -100 -10 -36 -3 -76 -7 -90 -9 -14 -2 -45 -7 -70 -10 -43 -6
-68 -10 -132 -20 -276 -46 -575 -135 -1203 -360 -71 -26 -202 -71 -290 -101
-87 -30 -164 -59 -170 -65 -11 -11 -11 -122 -1 -279 11 -157 14 -189 20 -199
3 -5 30 -16 59 -25 28 -8 106 -32 172 -53 66 -20 125 -38 130 -39 10 -2 119
-43 193 -74 l44 -17 119 78 c66 44 121 79 124 79 3 0 58 37 122 83 105 74 224
147 238 147 3 0 22 7 43 16 30 13 156 50 380 113 25 7 41 5 70 -9 128 -64 147
-68 347 -71 106 -1 156 3 205 16 70 18 81 21 150 35 55 11 206 65 320 115 47
21 105 46 130 57 92 40 361 179 515 266 75 42 344 217 355 231 3 3 23 19 45
35 60 44 255 244 255 263 0 4 116 179 221 333 36 52 82 127 103 165 21 39 39
72 41 74 2 2 11 -4 20 -13 37 -37 83 -66 135 -85 31 -11 79 -36 108 -54 l52
-33 -77 -109 c-73 -105 -84 -119 -108 -148 -20 -23 -74 -115 -96 -164 -12 -26
-34 -76 -50 -109 -27 -59 -48 -145 -43 -175 1 -8 5 -32 8 -54 9 -58 138 -307
172 -332 11 -8 14 -17 8 -22 -14 -14 -130 -50 -183 -57 -25 -3 -53 -10 -62
-15 -9 -4 -18 -6 -21 -4 -2 2 -20 0 -39 -5 -19 -5 -52 -11 -74 -15 -49 -7
-201 -42 -272 -61 -65 -19 -78 -33 -62 -68 10 -22 28 -31 101 -54 48 -15 88
-29 88 -32 0 -3 -20 -11 -45 -18 -32 -8 -48 -20 -59 -40 -15 -29 -13 -81 5
-114 5 -9 9 -19 9 -21 0 -6 -50 -39 -64 -41 -103 -21 -118 -43 -81 -115 21
-40 38 -54 122 -103 54 -30 127 -66 163 -78 36 -12 74 -26 85 -30 30 -12 254
-68 300 -76 60 -9 75 -21 29 -23 -21 0 -52 -3 -67 -5 -16 -2 -45 1 -65 6 -47
12 -84 11 -93 -3 -20 -33 41 -107 121 -148 62 -30 64 -36 16 -45 -41 -7 -56
-24 -56 -63 0 -48 69 -171 126 -225 25 -24 66 -75 90 -114 26 -42 61 -82 83
-97 21 -14 51 -37 66 -51 34 -31 46 -32 94 -5 23 13 45 36 58 65 12 24 32 65
45 91 12 26 21 57 20 69 -2 12 6 30 17 41 11 10 22 32 25 48 3 17 10 44 14 60
8 25 9 117 4 162 -2 16 -31 31 -70 38 -17 3 -43 17 -57 31 -22 22 -32 25 -63
20 -20 -3 -57 -8 -81 -11 -24 -3 -47 -7 -51 -10 -4 -3 -5 16 -2 40 3 35 0 50
-13 65 -25 28 -10 25 51 -10 57 -32 85 -30 127 8 25 23 99 179 95 201 -2 11 5
28 15 39 26 29 47 116 47 200 0 39 4 72 9 72 14 0 103 188 95 201 -3 6 4 24
16 41 42 57 69 248 40 283 -7 8 -31 20 -54 26 -22 6 -53 22 -68 36 -22 21 -32
24 -55 18 -15 -5 -49 -9 -75 -11 -26 -1 -52 -5 -58 -9 -15 -9 -12 17 5 39 8
11 15 31 15 45 0 13 6 32 14 40 22 26 55 189 62 311 1 25 5 74 8 110 7 79 18
289 19 348 1 47 12 52 52 26 23 -15 27 -15 62 3 30 14 46 33 74 88 20 39 37
82 38 97 0 15 6 30 12 33 19 12 40 94 43 170 1 11 11 36 22 56 12 20 25 47 29
60 4 13 16 35 25 49 10 14 16 37 15 53 -2 15 1 27 6 27 12 0 27 31 34 70 3 18
8 37 10 41 8 12 8 113 1 137 -5 15 -19 23 -44 28 -20 4 -50 17 -65 30 -28 24
-71 32 -81 15 -3 -4 -18 -7 -32 -5 -15 1 -46 -3 -68 -11 -23 -7 -84 -21 -136
-30 -52 -9 -110 -19 -129 -22 l-35 -6 20 31 c107 170 203 328 230 377 57 103
54 155 -9 155 -29 0 -54 -21 -138 -116 -28 -32 -79 -74 -90 -74 -4 0 -37 -18
-73 -40 -36 -22 -69 -40 -73 -40 -3 0 -15 -7 -25 -17 -26 -24 -35 -7 -10 20
28 29 68 105 77 145 3 17 17 54 31 82 13 27 24 56 24 63 0 7 4 17 9 23 22 22
77 268 101 444 6 47 13 96 15 110 2 14 7 50 10 80 3 30 8 71 10 90 2 19 6 58
9 85 3 28 9 77 12 110 7 68 9 84 19 245 12 173 8 815 -5 815 0 0 -3 38 -6 85
-2 47 -6 91 -9 97 -2 7 -7 42 -10 77 -4 36 -8 71 -9 78 -2 7 -6 36 -10 63 -11
74 -13 86 -20 125 -13 76 -16 96 -22 130 -20 125 -88 320 -171 489 -56 114
-76 144 -134 203 -73 73 -176 131 -253 143 -21 3 -41 7 -45 9 -3 2 -29 7 -57
10 -28 3 -59 8 -70 12 -99 32 -195 115 -215 185 -7 24 -16 49 -20 54 -4 6 -6
30 -4 54 3 35 11 52 42 83 45 47 97 82 137 92 55 14 188 16 230 4 22 -6 43
-12 46 -13 37 -8 60 -17 60 -24 0 -11 51 -74 117 -145 36 -38 68 -86 90 -135
57 -125 202 -415 215 -431 7 -8 31 -30 54 -47 22 -18 41 -38 41 -45 0 -7 3
-26 7 -43 7 -35 14 -70 21 -105 4 -22 11 -66 20 -135 2 -11 6 -42 9 -70 3 -27
8 -61 11 -75 2 -14 7 -50 11 -80 3 -30 8 -58 10 -61 2 -3 6 -26 9 -50 3 -24 7
-51 10 -59 2 -8 6 -33 10 -55 3 -22 8 -53 11 -70 3 -16 7 -39 9 -50 1 -11 10
-60 19 -110 8 -49 27 -166 41 -260 30 -201 32 -216 51 -320 8 -44 17 -89 19
-100 8 -43 63 -243 75 -270 14 -32 47 -140 84 -275 19 -69 57 -197 84 -286 28
-88 53 -180 57 -204 4 -25 8 -47 10 -50 2 -3 6 -37 10 -75 4 -39 9 -79 12 -90
5 -24 23 -138 28 -180 2 -16 7 -41 10 -55 19 -84 27 -135 31 -210 4 -84 17
-167 35 -225 50 -167 64 -232 85 -385 3 -25 14 -81 24 -125 19 -80 55 -259 66
-331 5 -33 49 -163 87 -254 5 -14 11 -30 12 -35 4 -15 81 -196 97 -225 19 -35
48 -79 79 -120 25 -32 27 -43 27 -120 1 -112 8 -194 22 -235 21 -63 107 -205
143 -236 31 -27 36 -37 35 -73 -1 -72 58 -162 147 -224 45 -32 229 -100 314
-118 19 -3 82 -22 140 -41 163 -53 185 -56 351 -58 85 -1 175 -5 200 -9 25 -4
54 -8 65 -10 22 -3 153 20 201 35 18 5 51 12 75 15 59 7 62 11 55 57 -11 65
-66 168 -121 222 -83 84 -246 147 -360 139 -22 -1 -98 -5 -170 -8 -125 -5
-127 -5 -64 7 69 13 99 29 99 54 0 17 -39 95 -92 185 -64 109 -107 150 -203
197 -78 38 -89 41 -142 35 -32 -3 -67 -9 -78 -13 -63 -25 -215 -51 -215 -37 0
2 11 28 24 58 14 31 36 111 51 179 14 68 32 148 39 177 7 29 10 54 6 57 -4 3
-4 24 0 47 9 45 5 307 -4 373 -26 170 -90 295 -171 330 -17 7 -54 29 -82 49
-29 20 -58 36 -64 36 -7 0 -9 8 -5 23 64 215 82 357 61 476 l-8 44 40 -6 c80
-13 206 -82 267 -146 17 -17 36 -31 43 -31 15 0 53 75 53 105 0 11 -15 43 -33
70 -45 67 -145 240 -164 285 -22 52 -126 348 -199 569 -64 192 -108 351 -119
427 -4 22 -8 46 -10 54 -2 8 -7 42 -10 75 -4 33 -8 67 -10 75 -8 29 -18 176
-18 255 0 75 5 148 18 238 3 20 7 52 9 70 12 95 37 177 55 177 13 0 37 -37
112 -169 88 -157 189 -252 245 -231 67 26 117 235 93 390 -6 42 -17 136 -24
220 -1 19 -5 62 -9 95 -3 33 -8 87 -11 120 -7 80 -16 163 -21 200 -3 17 -6
192 -9 390 -4 405 -8 464 -34 558 -52 189 -158 257 -323 209 -43 -12 -49 -18
-74 -70 -24 -49 -28 -71 -29 -156 -1 -54 2 -117 7 -140 17 -72 18 -80 23 -156
l4 -74 -36 44 c-86 105 -136 144 -263 208 -145 73 -159 75 -295 43 -22 -6 -41
-8 -44 -6 -8 8 -6 115 2 115 5 0 5 5 2 10 -5 9 8 126 22 185 2 11 6 61 7 111
3 84 1 97 -24 150 -16 32 -26 62 -24 66 15 24 104 51 179 54 44 2 114 6 155 9
70 5 85 3 192 -34 75 -25 151 -60 212 -98 130 -78 121 -73 204 -117 87 -47
173 -126 197 -181 34 -81 73 -205 66 -210 -4 -2 -23 -7 -41 -10 -65 -11 -74
-67 -24 -146 13 -21 24 -42 24 -47 0 -11 24 -31 170 -142 162 -123 289 -246
350 -339 57 -87 127 -248 114 -261 -5 -5 -31 -11 -57 -14 -27 -3 -52 -8 -57
-11 -5 -3 -41 21 -82 53 -107 85 -337 255 -380 281 -25 15 -39 18 -43 10 -8
-13 85 -208 157 -329 52 -86 157 -223 183 -237 7 -5 27 -27 44 -50 16 -23 55
-59 85 -80 39 -27 59 -48 67 -73 6 -19 17 -42 24 -50 6 -8 29 -46 50 -85 21
-38 47 -86 58 -105 11 -19 27 -47 34 -62 8 -15 19 -30 24 -34 16 -9 55 -77 62
-104 9 -42 14 -62 37 -145 14 -50 23 -119 25 -185 2 -58 4 -105 5 -105 0 0 2
-30 5 -67 3 -53 12 -83 41 -140 21 -40 47 -87 60 -103 12 -17 27 -56 34 -87
l13 -56 -57 -55 c-49 -48 -61 -70 -57 -99 5 -44 15 -74 33 -105 73 -130 72
-129 45 -124 -23 4 -67 -32 -75 -62 -10 -34 -8 -149 3 -207 4 -19 9 -88 11
-153 5 -175 12 -214 54 -284 34 -57 100 -93 154 -83 21 4 46 5 55 3 9 -2 35 3
59 11 32 12 75 48 174 147 71 73 138 145 148 162 10 16 70 82 133 146 75 76
122 133 136 164 11 26 30 68 42 93 32 73 33 113 4 304 -3 19 -10 46 -15 60 -4
14 -11 37 -14 51 -3 14 -35 56 -71 93 -79 81 -91 107 -71 150 8 17 24 56 36
86 12 30 38 70 58 90 21 19 51 55 67 79 17 25 52 65 78 90 60 57 90 106 125
207 37 104 35 154 -6 197 l-32 33 32 39 c18 22 35 42 38 45 3 3 28 34 55 70
27 36 52 67 55 70 32 27 128 215 164 320 14 41 28 98 31 126 3 28 8 61 11 75
3 13 7 150 9 304 2 154 6 292 8 307 21 114 21 115 18 191 -1 33 -37 46 -86 30
l-41 -13 -28 -108 c-40 -155 -94 -311 -123 -357 -23 -36 -70 -84 -83 -85 -3 0
-4 41 -4 90 1 50 -3 111 -8 138 -20 95 -69 268 -88 309 -11 24 -20 47 -20 53
0 5 -6 10 -14 10 -12 0 -16 -13 -32 -120 -1 -8 -5 -33 -8 -55 -4 -22 -8 -105
-11 -184 -3 -79 -6 -145 -7 -146 -2 -2 -28 9 -58 23 -163 75 -160 74 -208 68
-139 -16 -161 -39 -128 -134 15 -41 15 -42 -12 -54 -39 -19 -73 -94 -73 -160
0 -58 21 -162 44 -218 29 -67 78 -106 111 -88 15 9 18 8 13 -3 -32 -79 -131
-309 -156 -363 -18 -38 -35 -82 -38 -97 -3 -16 -10 -29 -15 -29 -10 0 -118
105 -118 114 0 4 6 21 13 39 18 44 15 137 -7 184 -12 27 -31 48 -58 63 -35 20
-50 22 -114 17 -65 -5 -74 -3 -75 11 0 9 -2 26 -4 37 -11 59 -15 84 -19 125
-8 69 -18 162 -22 190 -2 14 -6 52 -9 85 -6 65 -13 111 -20 135 -3 8 -7 35
-10 60 -3 25 -7 55 -10 68 -3 12 -7 31 -9 41 -3 11 -17 68 -32 128 -30 119
-35 218 -14 293 7 25 14 56 15 70 1 28 31 129 43 146 4 6 14 13 22 16 18 7 71
109 74 143 1 6 11 11 22 13 12 2 43 23 69 46 71 66 170 89 305 73 167 -20 198
-20 234 2 42 27 78 110 78 186 1 43 -3 52 -32 77 -40 33 -171 98 -199 98 -55
0 -53 14 8 41 33 15 61 33 61 39 0 7 -7 10 -15 6 -8 -3 -37 -8 -63 -11 -63 -9
-305 -63 -355 -81 -53 -19 -54 -19 -61 19 -9 44 -77 140 -108 151 -14 5 -38 6
-53 2 -30 -8 -30 -7 -1 -111 18 -65 13 -196 -9 -258 -15 -41 -16 -54 -5 -90 6
-23 19 -50 28 -60 14 -16 14 -19 2 -27 -8 -6 -22 -10 -31 -10 -8 0 -39 -7 -67
-15 -44 -13 -55 -22 -78 -60 -24 -42 -27 -44 -47 -30 -32 21 -166 74 -201 81
-17 3 -32 7 -35 9 -2 2 -12 0 -22 -6 -23 -12 -21 -17 -24 116 -2 106 -3 111
-25 165 -15 38 -106 185 -130 211 -8 8 -40 42 -70 75 -31 32 -87 84 -125 115
-39 31 -83 68 -100 83 -35 30 -222 166 -230 166 -3 0 -51 25 -107 56 -57 31
-121 67 -143 79 -42 22 -148 66 -223 92 -93 31 -275 8 -392 -52 -25 -12 -70
-34 -100 -49 -30 -14 -89 -50 -130 -79 -70 -49 -81 -62 -157 -188 -46 -73 -85
-138 -88 -144 -3 -6 -7 -5 -11 2 -11 24 -97 149 -143 208 -56 71 -73 98 -119
185 -19 36 -65 121 -103 190 -37 69 -81 159 -97 200 -25 63 -81 231 -88 265
-1 6 -11 44 -21 85 -17 64 -18 83 -8 132 6 31 12 79 14 106 2 44 0 50 -21 55
-36 10 -60 -15 -84 -84 -12 -35 -34 -98 -49 -139 -60 -163 -66 -247 -53 -717
3 -78 3 -156 0 -172 l-4 -29 -45 51 c-24 29 -60 68 -78 87 -39 41 -55 77 -60
140 -2 25 -11 65 -21 90 -18 48 -23 146 -10 222 7 41 5 51 -18 84 -14 21 -26
42 -26 46 0 4 -21 49 -46 100 -72 148 -88 206 -88 333 -1 134 14 323 34 430 9
49 18 103 25 158 13 93 16 114 20 127 2 8 7 31 10 50 3 19 13 62 22 95 8 33
17 71 20 85 9 52 72 228 112 313 23 48 41 89 41 91 0 8 94 174 128 226 84 129
201 262 242 275 16 5 31 30 35 55 0 3 3 10 7 15 6 10 11 50 9 72 -2 24 -68 35
-113 19z m3512 -6502 c0 -43 136 -271 177 -296 l23 -14 -31 -64 c-41 -87 -48
-125 -33 -183 15 -57 69 -157 96 -176 11 -7 24 -24 29 -38 8 -22 4 -31 -28
-67 -21 -22 -47 -60 -57 -83 -19 -42 -35 -56 -37 -30 -1 15 -6 49 -19 112 -6
28 -12 61 -15 75 -3 14 -5 111 -6 217 -1 106 -4 204 -6 218 -3 13 -22 44 -42
67 -20 24 -43 63 -51 88 -14 49 -20 190 -8 190 4 0 8 -7 8 -16z m-1171 -3980
c2 -2 -22 -4 -55 -3 -43 1 -52 3 -34 9 22 6 79 3 89 -6z"/>
<path d="M11788 14164 c-49 -25 -213 -313 -267 -467 -57 -164 -50 -199 14 -64
32 69 172 290 194 307 24 19 110 167 116 201 6 28 -25 40 -57 23z"/>
<path d="M12473 13897 c-13 -5 -23 -15 -23 -21 0 -16 62 -108 124 -186 29 -36
67 -85 86 -110 19 -25 55 -68 82 -97 l48 -52 -5 -67 c-3 -37 -8 -70 -10 -74
-11 -18 124 -297 140 -290 5 3 9 8 8 11 -1 3 -5 28 -9 55 -13 99 -24 145 -39
167 -8 12 -11 35 -8 60 9 69 10 180 2 215 -11 51 -117 176 -278 324 -76 71
-90 78 -118 65z"/>
<path d="M12582 13325 c-79 -19 -87 -30 -87 -128 0 -154 11 -215 51 -294 47
-93 99 -139 138 -122 20 10 56 70 56 94 0 3 7 19 16 36 28 54 27 128 -2 289
-12 66 -31 98 -73 119 -22 12 -42 21 -43 20 -2 0 -27 -7 -56 -14z"/>
<path d="M12917 12743 c-6 -9 -3 -49 8 -111 4 -23 8 -52 10 -65 4 -38 16 -99
33 -177 9 -41 16 -78 17 -82 0 -3 3 -10 8 -14 4 -4 7 -16 7 -26 0 -20 20 -84
69 -215 l30 -81 -36 -59 c-20 -32 -41 -67 -47 -79 -8 -14 -19 -20 -36 -17 -86
11 -183 13 -230 5 -121 -22 -129 -25 -221 -88 -43 -29 -107 -62 -141 -73 -51
-15 -62 -23 -60 -37 8 -46 55 -54 230 -40 38 3 63 -1 90 -14 20 -10 67 -32
103 -49 36 -18 83 -49 105 -69 21 -20 59 -53 84 -72 25 -19 47 -37 50 -41 3
-3 15 -9 27 -13 20 -6 15 -16 -77 -154 -107 -161 -129 -208 -109 -241 10 -14
17 -17 30 -11 20 11 94 121 146 219 l38 71 13 -33 c8 -17 25 -55 39 -84 29
-61 28 -89 -14 -238 -16 -58 -1 -138 36 -197 43 -68 55 -106 57 -182 2 -65 8
-128 19 -181 2 -11 4 -23 4 -27 1 -5 6 -8 13 -8 6 0 9 3 6 6 -3 3 -2 20 3 37
4 18 10 46 13 62 2 17 7 49 11 73 4 23 11 42 16 42 5 0 9 -5 9 -11 0 -13 48
-3 68 13 18 15 72 126 72 147 0 9 5 22 11 28 15 15 37 131 33 172 -2 18 -6 67
-8 109 -5 90 -9 110 -29 149 -28 52 -132 135 -172 137 -5 1 -22 9 -36 19 -25
16 -25 19 -15 68 10 50 10 52 -19 75 -26 20 -29 29 -27 70 1 26 6 50 10 53 11
8 32 68 32 93 0 10 15 32 34 48 30 27 77 110 121 215 9 22 19 71 21 110 3 57
-1 78 -20 121 -20 44 -114 193 -146 231 -5 6 -61 98 -125 205 -107 180 -146
231 -158 211z"/>
<path d="M12699 12159 c-37 -10 -101 -44 -134 -73 -16 -14 -33 -26 -37 -26 -4
0 -30 -38 -58 -84 -52 -86 -56 -109 -27 -147 16 -21 48 -37 69 -34 38 6 108
67 143 124 38 63 115 224 115 241 0 10 -31 10 -71 -1z"/>
<path d="M12712 10452 c-33 -5 -45 -34 -25 -62 13 -18 22 -21 49 -17 58 10
132 52 134 77 0 6 -123 7 -158 2z"/>
<path d="M12102 10413 c-13 -3 -27 -16 -34 -31 -9 -25 -13 -187 -5 -222 17
-76 89 -198 136 -232 l38 -27 20 22 c25 28 56 96 70 157 2 8 5 40 7 70 2 46
-3 65 -33 124 -20 39 -52 87 -72 108 -36 39 -59 44 -127 31z"/>
<path d="M12725 10312 c-95 -27 -115 -39 -115 -69 0 -16 10 -45 23 -65 28 -46
161 -141 186 -133 19 6 70 55 57 55 -5 0 -1 11 8 25 9 14 14 25 11 25 -3 0 0
10 7 23 12 23 14 28 18 62 5 42 -1 54 -35 74 -41 24 -85 25 -160 3z"/>
<path d="M12127 9580 c-110 -36 -146 -173 -77 -295 10 -18 24 -43 32 -56 38
-69 101 -89 137 -43 50 64 92 185 96 279 4 82 -6 115 -34 115 -11 0 -23 4 -26
10 -8 14 -71 9 -128 -10z"/>
<path d="M11524 8238 c-8 -13 -71 -253 -79 -297 -2 -14 -5 -42 -7 -61 -1 -19
-9 -41 -16 -49 -26 -27 6 -158 58 -241 6 -8 19 -31 29 -50 33 -58 67 -94 83
-88 38 15 57 234 25 301 -14 29 -57 71 -95 93 -2 1 8 29 21 62 22 54 43 128
52 187 15 92 16 127 5 140 -15 18 -66 20 -76 3z"/>
<path d="M11025 7420 c-7 -12 -7 -201 0 -265 2 -22 7 -71 10 -109 3 -38 7 -72
9 -75 2 -3 7 -35 11 -71 3 -36 8 -72 10 -80 2 -8 7 -43 10 -77 3 -34 8 -70 10
-81 2 -11 6 -37 9 -58 18 -116 54 -260 87 -344 99 -256 205 -487 291 -640 13
-25 67 -121 119 -213 52 -93 104 -185 116 -205 12 -20 25 -44 29 -52 12 -25
95 -121 168 -192 38 -37 64 -68 58 -68 -13 0 -110 34 -157 55 -39 18 -113 43
-145 49 -25 5 -31 6 -110 25 -56 13 -91 14 -110 1 -21 -13 3 -52 48 -75 20
-10 44 -24 52 -31 8 -6 35 -22 60 -35 48 -25 135 -85 186 -128 60 -51 100 -80
194 -141 78 -52 210 -148 230 -170 3 -3 25 -19 50 -36 88 -61 192 -104 299
-125 50 -10 61 -15 49 -23 -19 -14 -38 -50 -38 -73 0 -10 8 -35 19 -56 16 -32
16 -35 2 -28 -9 5 -25 19 -36 31 -11 12 -47 36 -80 53 -56 28 -68 30 -165 31
-174 0 -248 -16 -269 -58 -12 -26 -11 -33 10 -70 51 -91 80 -123 166 -178 28
-18 57 -44 65 -58 42 -81 74 -122 124 -159 82 -62 107 -52 163 64 13 28 23 54
22 59 -1 4 8 28 20 52 26 54 36 152 20 183 -12 22 -12 22 19 6 29 -15 34 -15
55 -1 13 9 42 43 65 75 l40 60 48 -24 c51 -26 145 -64 177 -71 113 -26 190
-33 335 -28 80 2 154 4 166 4 28 1 195 -69 325 -135 111 -56 225 -99 294 -110
22 -3 54 -8 70 -11 17 -3 39 -7 50 -9 62 -9 225 -108 225 -136 0 -8 -161 -61
-221 -73 -40 -9 -45 -46 -14 -115 17 -38 37 -64 57 -76 l32 -18 30 35 c34 40
124 103 230 162 75 42 59 41 235 20 48 -6 216 -55 271 -80 20 -8 50 -36 70
-64 19 -27 38 -50 43 -50 4 0 7 -4 7 -9 0 -10 -50 -18 -150 -26 -171 -13 -268
-24 -370 -40 -120 -20 -378 -100 -535 -165 -16 -7 -35 -14 -41 -15 -67 -15
-71 -37 -11 -64 49 -22 166 -58 217 -66 19 -3 46 -7 60 -10 14 -3 43 -7 65
-10 22 -3 56 -7 75 -10 34 -6 201 -10 740 -19 239 -4 339 -14 365 -37 16 -16
22 -10 40 39 10 26 26 65 35 87 10 22 30 74 45 115 15 41 30 84 35 95 21 49
31 95 23 108 -4 8 -26 35 -48 60 -22 24 -65 73 -95 108 -84 99 -121 131 -186
165 -32 17 -94 49 -136 72 -43 22 -78 39 -78 37 0 -2 -26 3 -57 10 -38 9 -121
14 -243 14 -102 0 -198 4 -215 9 -35 10 -85 6 -157 -13 -50 -13 -51 -12 -122
27 -108 59 -175 88 -218 93 -170 21 -240 42 -382 110 -77 37 -223 94 -298 115
-32 10 -51 22 -60 40 -7 14 -24 43 -39 65 -14 22 -43 66 -63 97 -20 31 -42 63
-49 70 -6 7 -24 29 -38 48 -50 67 -141 150 -222 204 -97 64 -309 170 -387 193
-69 21 -92 23 -160 12 -30 -5 -73 -11 -95 -14 -22 -2 -51 -7 -65 -10 -14 -3
-38 -7 -55 -10 -16 -3 -46 -9 -66 -13 -54 -14 -105 -10 -101 8 10 43 7 295 -4
383 -16 127 -19 139 -43 210 -42 122 -108 200 -442 523 -52 51 -122 120 -156
155 -34 35 -95 96 -135 134 -73 70 -136 153 -178 236 -21 40 -66 162 -75 199
-2 8 -12 53 -24 100 -11 47 -23 101 -26 120 -3 19 -8 42 -10 50 -13 47 -49
326 -54 418 -1 23 -15 29 -26 12z"/>
<path d="M9182 7192 c-30 -5 -37 -25 -23 -60 13 -31 67 -73 85 -66 19 7 46 59
46 87 0 34 -41 49 -108 39z"/>
<path d="M9184 6998 c-3 -4 -23 -12 -44 -18 -43 -12 -48 -24 -29 -78 19 -56
109 -81 145 -39 45 52 52 111 17 131 -21 12 -82 15 -89 4z"/>
<path d="M9198 6774 c-2 -1 -20 -4 -42 -7 -21 -3 -42 -11 -47 -18 -9 -15 6
-48 24 -50 7 -1 23 -3 37 -4 34 -4 144 45 131 58 -9 9 -97 27 -103 21z"/>
</g>
</svg>
